<svg xmlns="http://www.w3.org/2000/svg" width="19.144" height="19.12" viewBox="0 0 19.144 19.12">
  <path id="Path_28038" data-name="Path 28038" d="M14.566,12.137c0,.838.238,1.172.861,1.172,1.389,0,2.273-1.77,2.273-4.713,0-4.5-3.278-6.652-7.371-6.652a7.737,7.737,0,0,0-8.04,8.16c0,5.1,3.35,7.873,8.495,7.873a13.176,13.176,0,0,0,4.713-.79l.385,1.6a17.062,17.062,0,0,1-5.122.742C4.012,19.531.4,15.822.4,10.1.4,4.335,4.587.411,10.354.411,16.36.411,19.542,4,19.542,8.4c0,3.733-1.172,6.581-4.857,6.581-1.676,0-2.776-.67-2.919-2.155-.431,1.651-1.579,2.155-3.136,2.155-2.082,0-3.829-1.6-3.829-4.834C4.8,6.9,6.334,4.886,9.085,4.886a2.752,2.752,0,0,1,2.774,1.484L12.554,5.1h2.01v7.036h0ZM11.624,8.979a1.761,1.761,0,0,0-1.8-1.866c-.885,0-1.866.717-1.866,2.824,0,1.675.742,2.608,1.866,2.608a1.752,1.752,0,0,0,1.8-1.89Z" transform="translate(-0.398 -0.411)"/>
</svg>
