<svg id="Layer_2" data-name="Layer 2" xmlns="http://www.w3.org/2000/svg" width="21.715" height="21.715" viewBox="0 0 21.715 21.715">
  <g id="invisible_box" data-name="invisible box" transform="translate(0 0)">
    <rect id="Rectangle_2767" data-name="Rectangle 2767" width="21.715" height="21.715" fill="none"/>
    <rect id="Rectangle_2768" data-name="Rectangle 2768" width="21.715" height="21.715" fill="none"/>
  </g>
  <g id="icons_Q2" data-name="icons Q2" transform="translate(1.81 1.81)">
    <path id="Path_30274" data-name="Path 30274" d="M13.048,5.629h3.664a4.886,4.886,0,0,1,1.674.317,3.031,3.031,0,0,1,1.719,1.719,4.886,4.886,0,0,1,.317,1.674c.045.95.045,1.267.045,3.664s0,2.714-.045,3.664a4.886,4.886,0,0,1-.317,1.674,3.031,3.031,0,0,1-1.719,1.719,4.886,4.886,0,0,1-1.674.317H9.384A4.886,4.886,0,0,1,7.71,20.06a3.031,3.031,0,0,1-1.719-1.719,4.886,4.886,0,0,1-.317-1.674c-.045-.95-.045-1.267-.045-3.664s0-2.714.045-3.664a4.886,4.886,0,0,1,.317-1.674A3.031,3.031,0,0,1,7.71,5.945a4.886,4.886,0,0,1,1.674-.317h3.664m0-1.629H9.338a8.1,8.1,0,0,0-2.217.407A4.524,4.524,0,0,0,5.538,5.538,3.845,3.845,0,0,0,4.5,7.122a6.56,6.56,0,0,0-.452,2.217C4,10.288,4,10.605,4,13.048s0,2.76.045,3.71A6.56,6.56,0,0,0,4.5,18.974a3.845,3.845,0,0,0,1.041,1.583A3.845,3.845,0,0,0,7.122,21.6a6.56,6.56,0,0,0,2.217.452h7.419a6.56,6.56,0,0,0,2.217-.452,3.845,3.845,0,0,0,1.583-1.041,4.524,4.524,0,0,0,1.086-1.583,8.1,8.1,0,0,0,.407-2.217c.045-.95.045-1.267.045-3.71s0-2.76-.045-3.71a8.1,8.1,0,0,0-.407-2.217,4.524,4.524,0,0,0-1.086-1.583,4.524,4.524,0,0,0-1.583-1.086,8.1,8.1,0,0,0-2.217-.407h-3.71" transform="translate(-4 -4)"/>
    <path id="Path_30275" data-name="Path 30275" d="M18.36,13.7a4.66,4.66,0,1,0,4.66,4.66,4.66,4.66,0,0,0-4.66-4.66m0,7.691a3.031,3.031,0,1,1,3.031-3.031,3.031,3.031,0,0,1-3.031,3.031" transform="translate(-9.312 -9.312)"/>
    <path id="Path_30276" data-name="Path 30276" d="M34.472,11.986A1.086,1.086,0,1,1,33.386,10.9a1.086,1.086,0,0,1,1.086,1.086" transform="translate(-19.497 -7.778)"/>
  </g>
</svg>
