<svg xmlns="http://www.w3.org/2000/svg" width="15.115" height="19.964" viewBox="0 0 15.115 19.964">
  <path id="Subtraction_33" data-name="Subtraction 33" d="M7.557,0A7.357,7.357,0,0,0,0,7.13a11.945,11.945,0,0,0,1.436,4.646A75.971,75.971,0,0,0,5.6,18.886a2.323,2.323,0,0,0,3.923,0,75,75,0,0,0,4.159-7.108A11.963,11.963,0,0,0,15.115,7.13,7.356,7.356,0,0,0,7.557,0Zm.005,4.278A2.942,2.942,0,0,0,4.54,7.13,2.942,2.942,0,0,0,7.563,9.982,2.942,2.942,0,0,0,10.586,7.13,2.942,2.942,0,0,0,7.563,4.278Z" fill-rule="evenodd"/>
</svg>
