<svg xmlns="http://www.w3.org/2000/svg" width="17.666" height="16.365" viewBox="0 0 17.666 16.365">
  <path id="Path_27892" data-name="Path 27892" d="M30.245,24.861a24.327,24.327,0,0,0-3-1.416c-.333-.167-.666-.25-.916.167s-1.166,1.416-1.416,1.75a.666.666,0,0,1-.916.083,12.663,12.663,0,0,1-3.5-2.166,12.5,12.5,0,0,1-2.416-3,.583.583,0,0,1,.167-.833l.666-.833a2.916,2.916,0,0,0,.417-.666.75.75,0,0,0,0-.75c-.167-.25-1-2.333-1.333-3.249s-.75-.75-1-.75h-.833A1.416,1.416,0,0,0,15,13.781a4.582,4.582,0,0,0-1.5,3.582,8.664,8.664,0,0,0,1.75,4.5c.25.25,3.083,4.665,7.415,6.5a13.662,13.662,0,0,0,2.5.916,5.332,5.332,0,0,0,2.749.167c.833-.083,2.583-1,2.916-2a3.414,3.414,0,0,0,.25-2.083A1.75,1.75,0,0,0,30.245,24.861Z" transform="translate(-13.495 -13.186)"/>
</svg>
