<svg xmlns="http://www.w3.org/2000/svg" width="208.43" height="192.189" viewBox="0 0 208.43 192.189">
  <g id="Group_6975" data-name="Group 6975" transform="translate(-351.99 -94.769)">
    <g id="Group_6489" data-name="Group 6489" transform="translate(351.99 94.769)">
      <path id="Path_30330" data-name="Path 30330" d="M219.154,129.9a10.838,10.838,0,0,0-7.8,18.382c-5.247,7.3-16.356,20.406-28.841,20.778-15.214.456-12.476-18.429-11.587-23.029a6.914,6.914,0,1,0-5.031-1.12c-1.9,4.325-8.482,16.9-20.089,14.31-12.435-2.779-16.573-37.5-17.329-45.047a10.956,10.956,0,1,0-5.331-.322c-.67,6.857-4.747,42.551-17.362,45.369-11.606,2.593-18.19-9.986-20.086-14.31a6.953,6.953,0,1,0-5.033,1.12c.892,4.6,3.63,23.485-11.587,23.029-12.485-.372-23.593-13.474-28.841-20.778a11.3,11.3,0,1,0-5.075,2.943c4.7,6.715,11.687,17.623,12.915,24.741,1.648,9.566-4.808,12.221-4.808,12.221l81.967.767.559.006.559,0,81.969-.775s-6.456-2.654-4.808-12.221c1.226-7.118,8.216-18.026,12.915-24.741a10.741,10.741,0,0,0,2.724.386,10.856,10.856,0,1,0,0-21.712Z" transform="translate(-21.58 -92.675)"/>
      <path id="Path_30331" data-name="Path 30331" d="M109.721,128.668H30.3c.775.584,9.886,7.173,12.8,15.122h134.37c2.907-7.949,12.02-14.538,12.8-15.122H109.721Z" transform="translate(-6.065 -28.633)"/>
      <path id="Path_30332" data-name="Path 30332" d="M101.282,135.714H35.043v7.173h133.6v-7.173H101.282Z" transform="translate(2.375 -16.097)"/>
    </g>
    <path id="Path_30333" data-name="Path 30333" d="M39.567-31.077a7.546,7.546,0,0,1-4.149-2.647,47.319,47.319,0,0,1-4.781-6.084c-1.778-2.647-4.188-6.44-5.215-8.337,4.228-1.778,7.467-4.781,7.467-9.8a8.471,8.471,0,0,0-3.911-7.586c-2.252-1.5-5.136-2.015-9.6-2.015H4.245v1.738c4.583.316,5.1.632,5.1,5.571V-37.32c0,4.86-.553,5.294-5.334,5.689v1.659h16v-1.659c-4.741-.4-5.294-.83-5.294-5.689v-9.008h1.659c3.042,0,4.069.711,5.136,2.371,1.778,2.766,3.714,6.282,5.729,9.087,2.726,3.793,5.176,5.057,9.956,5.294a18.6,18.6,0,0,0,2.094.119ZM14.715-48.264V-62.488c0-1.5.237-2.173.632-2.489a5.887,5.887,0,0,1,3.161-.553c4.386,0,8.455,2.292,8.455,8.495,0,3.121-.909,5.373-3.161,7.112-1.5,1.185-3.477,1.659-6.44,1.659ZM61.85-68.414c-12.841,0-20.7,9.561-20.7,20.031,0,11.142,8.85,19.32,19.952,19.32,11.221,0,20.585-7.7,20.585-20.189,0-11.576-9.4-19.162-19.794-19.162Zm-1.225,2.173c7.783,0,14.5,6.4,14.5,18.53,0,11.181-6.084,16.476-12.722,16.476-8.495,0-14.777-8.02-14.777-18.649,0-10.944,6.322-16.357,12.959-16.357Zm59.264-1.3H106.535v1.738c4.583.435,4.781,1.027,3.516,3.714-1.62,3.477-4.9,9.285-7.033,13-2.529-4.346-5.452-9.087-7.9-13.512-1.027-1.9-1.264-2.647,3-3.2v-1.738H83.462v1.738c3.516.316,4.267,1.027,6.6,4.939,3.358,5.531,5.531,9.324,7.428,12.6.988,1.778,1.264,2.292,1.264,3.516V-37.4c0,5.018-.514,5.413-5.729,5.768v1.659H110.21v-1.659c-5.531-.356-5.966-.83-5.966-5.768v-7.586a6.212,6.212,0,0,1,1.027-3.793c2.884-5.255,4.781-8.376,7.428-12.327,2.292-3.516,3.082-4.267,7.191-4.7Zm34.966,37.574v-1.659c-3.832-.4-4.662-1.027-6.559-6.124-3.911-10.154-7.7-20.426-11.5-30.66l-2.055.514L122.339-37.755c-2.094,5.136-2.924,5.531-6.756,6.124v1.659h13.038v-1.659c-4.465-.474-4.939-1.146-3.674-4.662.751-2.292,1.541-4.544,2.529-7.191h12.683c1.264,3.319,2.331,6.2,3.161,8.495.79,2.331.277,2.845-3.4,3.358v1.659Zm-15.567-16.12H128.463c1.778-4.662,3.635-9.6,5.531-14.382h.119Zm46.384,6.44a15.742,15.742,0,0,1-3.2,5.768c-1.343,1.5-3.437,1.857-6.559,1.857-2.331,0-4.346-.119-5.492-.751-1.106-.593-1.383-1.7-1.383-4.86V-60.117c0-5.057.553-5.373,5.215-5.689v-1.738h-16v1.738c4.9.316,5.294.672,5.294,5.689v22.679c0,5.057-.514,5.452-5.571,5.808v1.659h27.262c.593-1.778,1.817-7.349,2.213-9.324Z" transform="translate(360.983 316.02)"/>
  </g>
</svg>
