<svg xmlns="http://www.w3.org/2000/svg" xmlns:xlink="http://www.w3.org/1999/xlink" width="43.728" height="43.728" viewBox="0 0 43.728 43.728">
  <defs>
    <linearGradient id="linear-gradient" x1="0.5" x2="0.5" y2="1" gradientUnits="objectBoundingBox">
      <stop offset="0" stop-color="#08f"/>
      <stop offset="1" stop-color="#00a8ff"/>
    </linearGradient>
    <filter id="Ellipse_1009" x="0" y="0" width="43.728" height="43.728" filterUnits="userSpaceOnUse">
      <feOffset dy="3" input="SourceAlpha"/>
      <feGaussianBlur stdDeviation="3" result="blur"/>
      <feFlood flood-opacity="0.161"/>
      <feComposite operator="in" in2="blur"/>
      <feComposite in="SourceGraphic"/>
    </filter>
  </defs>
  <g id="Group_6556" data-name="Group 6556" transform="translate(-187 -243.457)">
    <g transform="matrix(1, 0, 0, 1, 187, 243.46)" filter="url(#Ellipse_1009)">
      <circle id="Ellipse_1009-2" data-name="Ellipse 1009" cx="11.864" cy="11.864" r="11.864" transform="translate(10 7)" stroke="#fff" stroke-width="2" fill="url(#linear-gradient)"/>
    </g>
    <path id="Path_30340" data-name="Path 30340" d="M0,5.895a16.918,16.918,0,0,1,3.4,4.64C4.578,13.1,6.024,16.4,6.024,16.4A57.051,57.051,0,0,1,13.48,6.517,73.614,73.614,0,0,1,20.867,0a21.051,21.051,0,0,0-9.683,5.165C7.087,9.24,6.4,11.141,6.4,11.141s.2-.9-1.526-2.917A8.282,8.282,0,0,0,0,5.895Z" transform="translate(197.597 256.066) rotate(-8)" fill="#fff"/>
  </g>
</svg>
