<svg xmlns="http://www.w3.org/2000/svg" width="20" height="20" viewBox="0 0 20 20">
  <g id="Layer_2" data-name="Layer 2" transform="translate(0.458 -0.141)">
    <g id="invisible_box" data-name="invisible box" transform="translate(0 0)">
      <rect id="Rectangle_2155" data-name="Rectangle 2155" width="20" height="20" transform="translate(-0.458 0.141)" fill="none"/>
    </g>
    <g id="Icons" transform="translate(0.998 0.805)">
      <g id="Group_4323" data-name="Group 4323">
        <path id="Path_27891" data-name="Path 27891" d="M18.364,4.586A8.945,8.945,0,0,0,3.086,10.877a8.474,8.474,0,0,0,1.2,4.451L3,19.95l4.75-1.241a8.688,8.688,0,0,0,4.28,1.07A8.9,8.9,0,0,0,18.364,4.586Zm-6.334,13.7a7.318,7.318,0,0,1-4.066-1.2l-2.825.77.77-2.739a7.661,7.661,0,0,1-1.327-4.237,7.447,7.447,0,1,1,7.447,7.4Z" transform="translate(-3 -1.956)"/>
        <path id="Path_27892" data-name="Path 27892" d="M22.1,19.183a12.5,12.5,0,0,0-1.541-.728c-.171-.086-.342-.128-.471.086s-.6.728-.728.9a.342.342,0,0,1-.471.043,6.505,6.505,0,0,1-1.8-1.113,6.419,6.419,0,0,1-1.241-1.541.3.3,0,0,1,.086-.428l.342-.428a1.5,1.5,0,0,0,.214-.342.385.385,0,0,0,0-.385c-.086-.128-.514-1.2-.685-1.669s-.385-.385-.514-.385h-.428a.728.728,0,0,0-.6.3,2.354,2.354,0,0,0-.77,1.84,4.451,4.451,0,0,0,.9,2.311,10.184,10.184,0,0,0,3.809,3.338,7.019,7.019,0,0,0,1.284.471,2.739,2.739,0,0,0,1.412.086,2.16,2.16,0,0,0,1.5-1.027,1.754,1.754,0,0,0,.128-1.07.9.9,0,0,0-.428-.257Z" transform="translate(-9.004 -8.38)"/>
      </g>
    </g>
  </g>
</svg>
